<mxfile host="app.diagrams.net" modified="2021-03-05T07:37:59.343Z" agent="5.0 (Windows NT 10.0; Win64; x64) AppleWebKit/537.36 (KHTML, like Gecko) Chrome/87.0.4280.141 Safari/537.36 Edg/87.0.664.75" etag="Dk95G8FNOXee1mzVlIOY" version="14.4.2" type="github">
  <diagram id="4nc2c_a2_GFTpkZ4Qc1m" name="Page-1">
    <mxGraphModel dx="1422" dy="869" grid="1" gridSize="20" guides="1" tooltips="1" connect="1" arrows="1" fold="1" page="0" pageScale="1" pageWidth="850" pageHeight="1100" background="#ffffff" math="0" shadow="1">
      <root>
        <mxCell id="0" />
        <mxCell id="1" parent="0" />
        <mxCell id="YTSjqv5BdbOkAHbikcDk-1" value="Data Engineering Function" style="rounded=0;whiteSpace=wrap;html=1;fillColor=#ffe6cc;strokeColor=#d79b00;" vertex="1" parent="1">
          <mxGeometry x="190" y="-30" width="320" height="60" as="geometry" />
        </mxCell>
        <mxCell id="YTSjqv5BdbOkAHbikcDk-3" value="Suggested Orders" style="rounded=1;whiteSpace=wrap;html=1;fillColor=#fad9d5;strokeColor=#ae4132;" vertex="1" parent="1">
          <mxGeometry x="70" y="390" width="120" height="60" as="geometry" />
        </mxCell>
        <mxCell id="YTSjqv5BdbOkAHbikcDk-4" value="Seasonal Forecaster" style="rounded=1;whiteSpace=wrap;html=1;fillColor=#fad9d5;strokeColor=#ae4132;" vertex="1" parent="1">
          <mxGeometry x="-90" y="390" width="120" height="60" as="geometry" />
        </mxCell>
        <mxCell id="YTSjqv5BdbOkAHbikcDk-5" value="TIM Overlap" style="rounded=1;whiteSpace=wrap;html=1;fillColor=#fad9d5;strokeColor=#ae4132;" vertex="1" parent="1">
          <mxGeometry x="220" y="390" width="120" height="60" as="geometry" />
        </mxCell>
        <mxCell id="YTSjqv5BdbOkAHbikcDk-6" value="TBD" style="rounded=1;whiteSpace=wrap;html=1;fillColor=#fad9d5;strokeColor=#ae4132;" vertex="1" parent="1">
          <mxGeometry x="370" y="390" width="120" height="60" as="geometry" />
        </mxCell>
        <mxCell id="YTSjqv5BdbOkAHbikcDk-7" value="TBD" style="rounded=1;whiteSpace=wrap;html=1;fillColor=#fad9d5;strokeColor=#ae4132;" vertex="1" parent="1">
          <mxGeometry x="530" y="390" width="120" height="60" as="geometry" />
        </mxCell>
        <mxCell id="YTSjqv5BdbOkAHbikcDk-8" value="TBD" style="rounded=1;whiteSpace=wrap;html=1;fillColor=#fad9d5;strokeColor=#ae4132;" vertex="1" parent="1">
          <mxGeometry x="690" y="390" width="120" height="60" as="geometry" />
        </mxCell>
        <mxCell id="YTSjqv5BdbOkAHbikcDk-9" value="Pivot" style="ellipse;whiteSpace=wrap;html=1;aspect=fixed;gradientColor=#ea6b66;fillColor=#f8cecc;strokeColor=#b85450;" vertex="1" parent="1">
          <mxGeometry x="320" y="100" width="80" height="80" as="geometry" />
        </mxCell>
        <mxCell id="YTSjqv5BdbOkAHbikcDk-10" value="CH Global Automation Product - DataScience Tool Box" style="rounded=0;whiteSpace=wrap;html=1;fillColor=#dae8fc;strokeColor=#6c8ebf;" vertex="1" parent="1">
          <mxGeometry x="-40" y="250" width="800" height="60" as="geometry" />
        </mxCell>
        <mxCell id="YTSjqv5BdbOkAHbikcDk-12" value="" style="shape=curlyBracket;whiteSpace=wrap;html=1;rounded=1;direction=west;" vertex="1" parent="1">
          <mxGeometry x="560" y="-30" width="20" height="60" as="geometry" />
        </mxCell>
        <mxCell id="YTSjqv5BdbOkAHbikcDk-13" value="" style="shape=curlyBracket;whiteSpace=wrap;html=1;rounded=1;direction=north;size=0.5;" vertex="1" parent="1">
          <mxGeometry x="-90" y="490" width="120" height="20" as="geometry" />
        </mxCell>
        <mxCell id="YTSjqv5BdbOkAHbikcDk-14" value="" style="shape=curlyBracket;whiteSpace=wrap;html=1;rounded=1;direction=west;size=0.5;" vertex="1" parent="1">
          <mxGeometry x="790" y="240" width="20" height="80" as="geometry" />
        </mxCell>
        <mxCell id="YTSjqv5BdbOkAHbikcDk-15" value="" style="shape=curlyBracket;whiteSpace=wrap;html=1;rounded=1;direction=north;size=0.5;" vertex="1" parent="1">
          <mxGeometry x="530" y="490" width="120" height="20" as="geometry" />
        </mxCell>
        <mxCell id="YTSjqv5BdbOkAHbikcDk-16" value="" style="shape=curlyBracket;whiteSpace=wrap;html=1;rounded=1;direction=north;size=0.5;" vertex="1" parent="1">
          <mxGeometry x="70" y="490" width="120" height="20" as="geometry" />
        </mxCell>
        <mxCell id="YTSjqv5BdbOkAHbikcDk-17" value="" style="shape=curlyBracket;whiteSpace=wrap;html=1;rounded=1;direction=north;size=0.5;" vertex="1" parent="1">
          <mxGeometry x="220" y="490" width="120" height="20" as="geometry" />
        </mxCell>
        <mxCell id="YTSjqv5BdbOkAHbikcDk-18" value="" style="shape=curlyBracket;whiteSpace=wrap;html=1;rounded=1;direction=north;size=0.5;" vertex="1" parent="1">
          <mxGeometry x="370" y="490" width="120" height="20" as="geometry" />
        </mxCell>
        <mxCell id="YTSjqv5BdbOkAHbikcDk-19" value="" style="shape=curlyBracket;whiteSpace=wrap;html=1;rounded=1;direction=north;size=0.5;" vertex="1" parent="1">
          <mxGeometry x="690" y="490" width="120" height="20" as="geometry" />
        </mxCell>
        <mxCell id="YTSjqv5BdbOkAHbikcDk-25" value="Michael Seddon" style="text;html=1;align=center;verticalAlign=middle;resizable=0;points=[];autosize=1;" vertex="1" parent="1">
          <mxGeometry x="600" y="-10" width="100" height="20" as="geometry" />
        </mxCell>
        <mxCell id="YTSjqv5BdbOkAHbikcDk-26" value="&amp;nbsp; &amp;nbsp; &amp;nbsp; &amp;nbsp; &amp;nbsp; Prasoon Majumdar" style="text;html=1;align=center;verticalAlign=middle;resizable=0;points=[];autosize=1;" vertex="1" parent="1">
          <mxGeometry x="822" y="271" width="146" height="19" as="geometry" />
        </mxCell>
        <mxCell id="YTSjqv5BdbOkAHbikcDk-27" value="Krishna Sai" style="text;html=1;align=center;verticalAlign=middle;resizable=0;points=[];autosize=1;" vertex="1" parent="1">
          <mxGeometry x="-110" y="520" width="100" height="20" as="geometry" />
        </mxCell>
        <mxCell id="YTSjqv5BdbOkAHbikcDk-28" value="Lalatendu" style="text;html=1;align=center;verticalAlign=middle;resizable=0;points=[];autosize=1;" vertex="1" parent="1">
          <mxGeometry x="80" y="520" width="80" height="20" as="geometry" />
        </mxCell>
        <mxCell id="YTSjqv5BdbOkAHbikcDk-29" value="Paritosh" style="text;html=1;align=center;verticalAlign=middle;resizable=0;points=[];autosize=1;" vertex="1" parent="1">
          <mxGeometry x="240" y="520" width="80" height="20" as="geometry" />
        </mxCell>
      </root>
    </mxGraphModel>
  </diagram>
</mxfile>
